<svg width="96" height="24" viewBox="0 0 96 24" fill="none" xmlns="http://www.w3.org/2000/svg">
  <g style="mix-blend-mode:multiply">
  <path d="M71.3055 10.4036C70.8585 9.59729 70.2091 8.92736 69.4242 8.46282C68.6204 7.98741 67.7058 7.74262 66.777 7.75431C65.8413 7.74371 64.9199 7.98829 64.1077 8.46282C63.5211 8.80305 63.0081 9.26117 62.5996 9.80953C62.4593 9.99874 62.3314 10.1972 62.2166 10.4036C61.7564 11.2418 61.5205 12.1892 61.5328 13.1502C61.5199 14.1053 61.7384 15.0489 62.169 15.8968C62.2949 16.1394 62.4388 16.3717 62.5996 16.5918C62.9574 17.0862 63.4046 17.506 63.9171 17.8285C64.8944 18.4399 66.0555 18.6691 67.1855 18.4737C68.3155 18.2784 69.338 17.6716 70.064 16.7658V17.4869C70.064 17.7499 70.1662 18.0021 70.3483 18.188C70.5303 18.374 70.7772 18.4784 71.0346 18.4784C71.2921 18.4784 71.539 18.374 71.721 18.188C71.903 18.0021 72.0053 17.7499 72.0053 17.4869V13.1601C72.0173 12.1939 71.7757 11.2421 71.3055 10.4036ZM69.7004 15.0008C69.419 15.5426 68.9971 15.9949 68.4808 16.3081C67.9645 16.6214 67.3739 16.7834 66.7734 16.7766C66.1683 16.7844 65.573 16.6196 65.0545 16.3006C64.5426 15.986 64.1224 15.5372 63.8376 15.0008C63.5355 14.4321 63.3818 13.7935 63.3911 13.1466C63.3825 12.4968 63.5362 11.8556 63.8376 11.2833C64.1206 10.7427 64.5409 10.2899 65.0545 9.97269C65.4403 9.73305 65.8699 9.57659 66.3171 9.51294C66.7643 9.44929 67.2195 9.47979 67.6547 9.60256C68.0899 9.72533 68.4959 9.93779 68.8477 10.2268C69.1995 10.5159 69.4897 10.8754 69.7004 11.2833C69.9974 11.8571 70.1491 12.4976 70.1416 13.1466C70.1505 13.794 69.9987 14.4331 69.7004 15.0044V15.0008Z" fill="#F34867"/>
  </g>
  <g style="mix-blend-mode:multiply">
  <path d="M37.514 12.0175C36.1834 10.8457 34.3779 10.2012 32.4304 10.2012C30.4829 10.2012 28.6775 10.8466 27.3468 12.0175C27.1159 12.2222 26.8992 12.4429 26.6982 12.6783C27.9266 14.1052 28.5946 15.9387 28.5946 17.9452V17.1123C28.5946 14.7984 30.5209 13.7636 32.4304 13.7636C34.34 13.7636 36.2672 14.7984 36.2672 17.1123V20.5314C36.2672 21.0038 36.4509 21.4568 36.7779 21.7909C37.1049 22.1249 37.5484 22.3126 38.0108 22.3126C38.4733 22.3126 38.9168 22.1249 39.2438 21.7909C39.5708 21.4568 39.7545 21.0038 39.7545 20.5314V17.1123C39.7536 15.0986 38.9577 13.2885 37.514 12.0175Z" fill="#F34867"/>
  </g>
  <g style="mix-blend-mode:multiply">
  <path d="M33.1922 9.14937C34.9727 8.72007 36.0755 6.89754 35.6553 5.07863C35.235 3.25972 33.4509 2.13322 31.6703 2.56253C29.8897 2.99183 28.787 4.81436 29.2072 6.63327C29.6275 8.45217 31.4116 9.57867 33.1922 9.14937Z" fill="#F34867"/>
  </g>
  <g style="mix-blend-mode:multiply">
  <path d="M25.1074 22.2188C25.1073 22.6597 25.2674 23.085 25.5565 23.4123C25.8457 23.7397 26.2435 23.9459 26.6728 23.9909C26.2435 23.9457 25.8459 23.7394 25.5568 23.4121C25.2676 23.0848 25.1075 22.6596 25.1074 22.2188Z" fill="#0FB9F4"/>
  </g>
  <g style="mix-blend-mode:multiply">
  <path d="M27.0293 23.9909C27.4587 23.9459 27.8564 23.7397 28.1456 23.4123C28.4348 23.085 28.5948 22.6597 28.5947 22.2188C28.5946 22.6596 28.4345 23.0848 28.1454 23.4121C27.8562 23.7394 27.4586 23.9457 27.0293 23.9909Z" fill="#0FB9F4"/>
  </g>
  <g style="mix-blend-mode:multiply">
  <path d="M19.8765 8.46068C22.1637 8.46068 24.0177 6.56669 24.0177 4.23034C24.0177 1.89399 22.1637 0 19.8765 0C17.5894 0 15.7354 1.89399 15.7354 4.23034C15.7354 6.56669 17.5894 8.46068 19.8765 8.46068Z" fill="#F34867"/>
  </g>
  <g style="mix-blend-mode:multiply">
  <path d="M26.6987 12.6769C26.4656 12.4051 26.2144 12.15 25.9469 11.9134C24.3586 10.5189 22.2072 9.75 19.8768 9.75C17.5463 9.75 15.3914 10.518 13.8075 11.9134C13.5398 12.1497 13.2886 12.4049 13.0557 12.6769C14.0863 13.8812 14.644 15.4235 14.644 17.111V17.9439C14.644 14.7628 17.3548 13.3133 19.8741 13.3133C22.3934 13.3133 25.1051 14.7628 25.1051 17.9439V17.111C25.1077 15.4235 25.6681 13.8812 26.6987 12.6769Z" fill="#F34867"/>
  </g>
  <g style="mix-blend-mode:multiply">
  <path d="M25.1074 17.1118V22.2192C25.1075 22.6601 25.2676 23.0853 25.5568 23.4126C25.8459 23.7399 26.2435 23.9461 26.6728 23.9914C26.7902 24.0032 26.9084 24.0032 27.0258 23.9914C27.4551 23.9461 27.8527 23.7399 28.1419 23.4126C28.431 23.0853 28.5911 22.6601 28.5912 22.2192V17.9447C28.5912 15.9382 27.9232 14.1047 26.6949 12.6777C25.6678 13.882 25.1074 15.4243 25.1074 17.1118Z" fill="#0FB9F4"/>
  </g>
  <path d="M25.1074 17.1118V22.2192C25.1075 22.6601 25.2676 23.0853 25.5568 23.4126C25.8459 23.7399 26.2435 23.9461 26.6728 23.9914C26.7902 24.0032 26.9084 24.0032 27.0258 23.9914C27.4551 23.9461 27.8527 23.7399 28.1419 23.4126C28.431 23.0853 28.5911 22.6601 28.5912 22.2192V17.9447C28.5912 15.9382 27.9232 14.1047 26.6949 12.6777C25.6678 13.882 25.1074 15.4243 25.1074 17.1118Z" fill="#13123C"/>
  <g style="mix-blend-mode:multiply">
  <path d="M9.66575 8.2463C10.9594 6.9248 10.9594 4.78223 9.66575 3.46073C8.3721 2.13923 6.27468 2.13923 4.98103 3.46073C3.68738 4.78223 3.68738 6.9248 4.98103 8.2463C6.27468 9.5678 8.3721 9.5678 9.66575 8.2463Z" fill="#F34867"/>
  </g>
  <g style="mix-blend-mode:multiply">
  <path d="M11.1592 22.2188C11.1589 22.6597 11.3189 23.0851 11.6081 23.4125C11.8973 23.7399 12.2951 23.9461 12.7246 23.9909C12.2952 23.9459 11.8975 23.7397 11.6083 23.4123C11.3191 23.085 11.1591 22.6597 11.1592 22.2188Z" fill="#0FB9F4"/>
  </g>
  <g style="mix-blend-mode:multiply">
  <path d="M13.0811 23.9909C13.5108 23.9463 13.9089 23.7403 14.1985 23.4129C14.488 23.0855 14.6483 22.66 14.6482 22.2188C14.6481 22.6599 14.4877 23.0853 14.1982 23.4127C13.9087 23.74 13.5107 23.9461 13.0811 23.9909Z" fill="#0FB9F4"/>
  </g>
  <g style="mix-blend-mode:multiply">
  <path d="M12.4068 12.0175C11.0761 10.8457 9.27068 10.2012 7.32318 10.2012C5.37569 10.2012 3.57026 10.8466 2.23958 12.0175C0.794176 13.2885 0 15.0986 0 17.1123V20.5314C0 21.0038 0.183706 21.4568 0.510705 21.7909C0.837705 22.1249 1.28121 22.3126 1.74366 22.3126C2.2061 22.3126 2.64961 22.1249 2.97661 21.7909C3.30361 21.4568 3.48732 21.0038 3.48732 20.5314V17.1123C3.48732 14.7984 5.41363 13.7636 7.32318 13.7636C9.23274 13.7636 11.1591 14.7984 11.1591 17.1123V17.9452C11.1591 15.9387 11.827 14.1052 13.0554 12.6783C12.8544 12.4429 12.6377 12.2222 12.4068 12.0175Z" fill="#F34867"/>
  </g>
  <g style="mix-blend-mode:multiply">
  <path d="M13.0594 12.6777C11.8311 14.1047 11.1631 15.9382 11.1631 17.9447V22.2192C11.163 22.6601 11.323 23.0854 11.6122 23.4128C11.9014 23.7402 12.2991 23.9463 12.7285 23.9914C12.8459 24.0032 12.9641 24.0032 13.0815 23.9914C13.5109 23.9463 13.9088 23.7402 14.1981 23.4129C14.4874 23.0855 14.6476 22.6602 14.6478 22.2192V17.1118C14.6478 15.4243 14.0857 13.882 13.0594 12.6777Z" fill="#0FB9F4"/>
  </g>
  <path d="M13.0594 12.6777C11.8311 14.1047 11.1631 15.9382 11.1631 17.9447V22.2192C11.163 22.6601 11.323 23.0854 11.6122 23.4128C11.9014 23.7402 12.2991 23.9463 12.7285 23.9914C12.8459 24.0032 12.9641 24.0032 13.0815 23.9914C13.5109 23.9463 13.9088 23.7402 14.1981 23.4129C14.4874 23.0855 14.6476 22.6602 14.6478 22.2192V17.1118C14.6478 15.4243 14.0857 13.882 13.0594 12.6777Z" fill="#13123C"/>
  <path d="M59.727 18.45H60.0685C60.3611 18.4632 60.6484 18.3671 60.8768 18.1796C60.9775 18.0949 61.0581 17.9879 61.1124 17.8667C61.1666 17.7455 61.1932 17.6133 61.19 17.4801C61.2 17.225 61.1152 16.9754 60.9526 16.7815C60.8814 16.6956 60.7925 16.6269 60.6923 16.5802C60.5921 16.5334 60.4831 16.5098 60.3729 16.5111H59.727C59.5277 16.5115 59.3311 16.4643 59.1529 16.3732C58.9747 16.2821 58.8198 16.1496 58.7007 15.9864C58.415 15.6171 58.2668 15.1562 58.2825 14.6857V9.88926H59.8982C60.1348 9.89989 60.3663 9.81654 60.5441 9.6567C60.6238 9.58349 60.6872 9.49357 60.7298 9.39308C60.7725 9.29259 60.7934 9.18389 60.7912 9.07438C60.796 8.95881 60.7765 8.84352 60.7339 8.73635C60.6912 8.62919 60.6265 8.53265 60.5441 8.45331C60.3666 8.29281 60.135 8.20909 59.8982 8.21984H58.2825V5.42546C58.2872 5.29674 58.2661 5.16839 58.2206 5.04827C58.1751 4.92814 58.1061 4.81877 58.0177 4.72686C57.9762 4.68457 57.9306 4.64654 57.8818 4.61328V17.8551C57.9295 17.8893 57.9771 17.9227 58.0266 17.9551C58.535 18.2835 59.1254 18.4554 59.727 18.45Z" fill="#0F284F"/>
  <path d="M60.9529 16.7809C60.8817 16.6951 60.7928 16.6263 60.6926 16.5796C60.5924 16.5329 60.4833 16.5093 60.3732 16.5105H59.7273C59.528 16.5109 59.3314 16.4637 59.1532 16.3726C58.975 16.2815 58.8201 16.1491 58.701 15.9859C58.4153 15.6165 58.2671 15.1556 58.2827 14.6851V9.88962H59.8985C60.1351 9.90024 60.3666 9.8169 60.5444 9.65705C60.6241 9.58384 60.6875 9.49392 60.7301 9.39343C60.7728 9.29294 60.7937 9.18424 60.7915 9.07474C60.7963 8.95916 60.7768 8.84388 60.7341 8.73671C60.6915 8.62954 60.6268 8.533 60.5444 8.45366C60.3669 8.29316 60.1353 8.20944 59.8985 8.2202H58.2827V5.42581C58.2875 5.29709 58.2664 5.16874 58.2209 5.04862C58.1754 4.92849 58.1064 4.81913 58.018 4.72721C57.9764 4.68493 57.9309 4.64689 57.8821 4.61363C57.7188 4.50611 57.5275 4.45115 57.3333 4.45589C57.2074 4.45052 57.0818 4.47193 56.9644 4.51875C56.847 4.56557 56.7404 4.63679 56.6514 4.72789C56.5624 4.81899 56.4929 4.92799 56.4473 5.04797C56.4017 5.16796 56.3809 5.29631 56.3864 5.42491V8.21929H55.512C55.2751 8.20835 55.0434 8.29209 54.866 8.45276C54.7835 8.53199 54.7187 8.62851 54.676 8.7357C54.6334 8.8429 54.6139 8.95824 54.6189 9.07384C54.6165 9.18336 54.6374 9.29212 54.68 9.39264C54.7227 9.49316 54.7861 9.58305 54.866 9.65615C55.0437 9.81616 55.2753 9.89953 55.512 9.88871H56.3864V14.6842C56.3761 15.3517 56.5261 16.0115 56.8232 16.6061C57.0721 17.1038 57.4355 17.5325 57.8821 17.8554C57.9298 17.8897 57.9774 17.923 58.0268 17.9555C58.5356 18.2841 59.1263 18.4559 59.7281 18.4504H60.0696C60.3623 18.4635 60.6496 18.3674 60.8779 18.1799C60.9787 18.0953 61.0593 17.9883 61.1135 17.8671C61.1678 17.7459 61.1944 17.6137 61.1912 17.4804C61.2011 17.2249 61.116 16.975 60.9529 16.7809Z" fill="#13123C"/>
  <path d="M46.4597 9.07359C46.0891 9.52345 45.8932 10.0967 45.9091 10.6844C45.9091 11.7427 46.4653 12.554 47.5778 13.1182V8.22266C47.1489 8.41982 46.7673 8.71022 46.4597 9.07359Z" fill="#0F284F"/>
  <path d="M53.1587 13.3847C52.5827 12.8799 51.6041 12.4851 50.2229 12.2002C49.6983 12.1008 49.1834 11.9546 48.6839 11.7631C48.331 11.6152 48.0904 11.4536 47.9621 11.2781C47.8305 11.0887 47.7636 10.8603 47.7715 10.6282C47.7715 10.2676 47.9586 9.98607 48.3327 9.78355C48.7069 9.58103 49.1854 9.48067 49.7684 9.48248C50.206 9.47059 50.6427 9.53148 51.0612 9.66276C51.4365 9.79835 51.7796 10.0134 52.068 10.2938C52.3086 10.5287 52.6281 10.6606 52.961 10.6624C53.1493 10.67 53.335 10.6153 53.4904 10.5065C53.7058 10.3262 53.8134 10.1252 53.8134 9.90524C53.8047 9.67506 53.7173 9.45528 53.5663 9.28417C53.1522 8.78195 52.6195 8.39598 52.0186 8.16281C51.3138 7.88004 50.5617 7.74071 49.8046 7.75266C49.1573 7.74848 48.5143 7.86014 47.9047 8.08258C47.7909 8.12404 47.6833 8.17272 47.5783 8.2214C47.1494 8.41856 46.7678 8.70896 46.4602 9.07233C46.0896 9.52219 45.8937 10.0954 45.9096 10.6832C45.9096 11.7414 46.4658 12.5527 47.5783 13.117C48.2075 13.419 48.8734 13.6336 49.5584 13.7552C50.4955 13.9355 51.1606 14.1587 51.5535 14.4249C51.9465 14.6912 52.1427 15.0244 52.1421 15.4246C52.1421 15.8387 51.9427 16.1692 51.5438 16.4162C51.145 16.6631 50.5844 16.786 49.8619 16.7848C49.3346 16.7884 48.8117 16.6861 48.323 16.4838C48.0602 16.3785 47.8103 16.2424 47.5783 16.0781C47.455 15.9899 47.3414 15.8884 47.2394 15.7753C47.0117 15.5427 46.7711 15.4264 46.5176 15.4264C46.3146 15.4264 46.0928 15.5166 45.8522 15.6968C45.7329 15.7814 45.6358 15.8947 45.5696 16.0268C45.5034 16.1589 45.4702 16.3057 45.4728 16.454C45.4715 16.5663 45.4928 16.6777 45.5353 16.7812C45.5778 16.8848 45.6406 16.9784 45.7199 17.0562C46.1493 17.4961 46.7447 17.8518 47.5059 18.1234L47.5783 18.1478C48.339 18.4063 49.1361 18.5357 49.9378 18.5309C50.7991 18.5309 51.5371 18.3918 52.1518 18.1135C52.7666 17.8353 53.2322 17.4537 53.5487 16.9687C53.8633 16.4891 54.0288 15.9235 54.0234 15.3462C54.0234 14.5427 53.7352 13.8889 53.1587 13.3847Z" fill="#13123C"/>
  <path d="M78.6974 3.54204C78.5066 3.37112 78.2593 3.28087 78.0056 3.28965C77.5666 3.28907 77.1296 3.34972 76.7067 3.46993C76.3807 3.56225 76.0671 3.69548 75.7731 3.86655C75.1251 4.24285 74.5972 4.80217 74.2527 5.47738C73.8921 6.16967 73.7115 6.97523 73.7109 7.89408V8.22399H72.8938C72.657 8.21324 72.4253 8.29696 72.2479 8.45746C72.1653 8.53669 72.1005 8.63321 72.0578 8.7404C72.0152 8.8476 71.9957 8.96294 72.0008 9.07853C71.9984 9.18806 72.0192 9.29682 72.0619 9.39734C72.1045 9.49786 72.168 9.58775 72.2479 9.66085C72.4257 9.82069 72.6572 9.90404 72.8938 9.89341H73.7109V17.4653C73.7049 17.5986 73.7263 17.7316 73.7739 17.8559C73.8215 17.9801 73.8941 18.0927 73.9871 18.1864C74.0732 18.2739 74.1755 18.3429 74.2882 18.3894C74.4008 18.4358 74.5213 18.4588 74.6427 18.4569C74.9586 18.4569 75.2054 18.3667 75.3831 18.1864C75.473 18.091 75.5428 17.9778 75.5884 17.8538C75.6339 17.7298 75.6541 17.5976 75.6478 17.4653V9.89341H77.5891C77.8261 9.90418 78.0579 9.82083 78.2359 9.66085C78.3157 9.58764 78.379 9.49772 78.4217 9.39723C78.4643 9.29674 78.4852 9.18804 78.483 9.07853C78.4879 8.96296 78.4683 8.84767 78.4257 8.74051C78.3831 8.63334 78.3183 8.5368 78.2359 8.45746C78.0582 8.29682 77.8262 8.2131 77.5891 8.22399H75.6478V7.69576C75.6478 6.90612 75.8631 6.27213 76.2937 5.79378C76.4155 5.65832 76.5537 5.53927 76.7049 5.43952C77.0937 5.19124 77.5456 5.0658 78.0039 5.07896C78.2581 5.0882 78.5062 4.99792 78.6974 4.82656C78.7877 4.74692 78.8596 4.64779 78.9078 4.53633C78.956 4.42487 78.9794 4.30387 78.9763 4.18205C78.9789 4.06097 78.9552 3.9408 78.907 3.83015C78.8588 3.7195 78.7873 3.62112 78.6974 3.54204Z" fill="#13123C"/>
  <path d="M85.6717 3.54219C85.4802 3.37061 85.2318 3.28032 84.9773 3.28979C84.1966 3.27544 83.4262 3.47296 82.7447 3.86219C82.1823 4.18799 81.7089 4.65293 81.3682 5.21431C81.3179 5.29724 81.2702 5.38198 81.2243 5.46941C80.8637 6.1617 80.6834 6.96726 80.6834 7.88611V8.21603H79.8663C79.6292 8.20513 79.3972 8.28885 79.2195 8.44949C79.1371 8.52883 79.0724 8.62537 79.0297 8.73254C78.9871 8.83971 78.9675 8.95499 78.9724 9.07057C78.9702 9.18007 78.9911 9.28877 79.0337 9.38926C79.0764 9.48976 79.1397 9.57967 79.2195 9.65288C79.3976 9.81286 79.6294 9.89621 79.8663 9.88545H80.6834V17.4573C80.6772 17.5905 80.6985 17.7236 80.7459 17.8478C80.7934 17.9721 80.8659 18.0847 80.9587 18.1785C81.0723 18.2934 81.2135 18.3758 81.3682 18.4173C81.4485 18.4393 81.5313 18.4502 81.6144 18.4498C81.9303 18.4498 82.1773 18.3596 82.3556 18.1794C82.4453 18.0838 82.5151 17.9706 82.5606 17.8466C82.6061 17.7226 82.6264 17.5905 82.6203 17.4582V9.88635H84.5616C84.7983 9.89697 85.0298 9.81363 85.2076 9.65378C85.2873 9.58057 85.3507 9.49066 85.3933 9.39016C85.4359 9.28967 85.4569 9.18097 85.4546 9.07147C85.4595 8.9559 85.44 8.84061 85.3973 8.73344C85.3547 8.62627 85.29 8.52974 85.2076 8.45039C85.0301 8.28989 84.7984 8.20617 84.5616 8.21693H82.6203V7.69591C82.6203 6.90627 82.8356 6.27227 83.2663 5.79392C83.6969 5.31557 84.2669 5.07519 84.9764 5.07279C85.2306 5.08203 85.4787 4.99175 85.67 4.82039C85.757 4.73906 85.8265 4.64012 85.874 4.52986C85.9216 4.41959 85.9461 4.30043 85.9461 4.17994C85.9461 4.05945 85.9216 3.94029 85.874 3.83002C85.8265 3.71976 85.757 3.62081 85.67 3.53948L85.6717 3.54219Z" fill="#13123C"/>
  <path d="M95.4106 7.93337C95.267 7.86838 95.1114 7.83549 94.9543 7.83692C94.6243 7.83692 94.3781 8.02441 94.2131 8.3994L91.7238 14.1333L91.1538 15.4422L87.6762 8.37686C87.4997 8.0163 87.235 7.83601 86.882 7.83601C86.7513 7.83432 86.6217 7.86073 86.5017 7.91354C86.3429 7.98615 86.2054 8.09987 86.1028 8.24345C86.0033 8.37666 85.9488 8.53924 85.9475 8.70678C85.9441 8.84864 85.9766 8.98899 86.0419 9.11422L90.3181 17.4072L88.4183 21.7701C88.3452 21.9142 88.3062 22.0738 88.3045 22.2361C88.3045 22.5726 88.4945 22.825 88.8745 22.9933C89.0175 23.0625 89.1726 23.102 89.3307 23.1096C89.6719 23.1096 89.919 22.9092 90.0719 22.5083L91.7247 18.7116L95.8862 9.15659C95.9539 9.01045 95.9926 8.85206 96 8.69056C95.9994 8.3396 95.8029 8.08721 95.4106 7.93337Z" fill="#13123C"/>
</svg>